<?xml version="1.0" standalone="no"?>
<!DOCTYPE svg PUBLIC "-//W3C//DTD SVG 20010904//EN"
 "http://www.w3.org/TR/2001/REC-SVG-20010904/DTD/svg10.dtd">
<svg version="1.0" xmlns="http://www.w3.org/2000/svg"
 width="600.000000pt" height="600.000000pt" viewBox="0 0 600.000000 600.000000"
 preserveAspectRatio="xMidYMid meet">
<metadata>
Created by potrace 1.14, written by Peter Selinger 2001-2017
</metadata>
<g transform="translate(0.000000,600.000000) scale(0.100000,-0.100000)"
fill="#000000" stroke="none">
<path d="M0 3000 l0 -3000 3000 0 3000 0 0 3000 0 3000 -3000 0 -3000 0 0
-3000z m1745 1568 c523 -92 862 -321 1050 -713 93 -192 137 -374 157 -647 27
-374 -33 -741 -165 -1006 -219 -441 -619 -686 -1197 -732 -80 -6 -335 -10
-625 -8 l-490 3 -3 1563 -2 1563 592 -4 c480 -3 610 -7 683 -19z m2873 -125
c17 -49 65 -187 107 -308 42 -121 123 -353 180 -515 57 -162 151 -432 210
-600 264 -753 535 -1528 543 -1548 3 -10 -25 -12 -134 -10 l-138 3 -169 513
-168 512 -598 0 -599 0 -6 -24 c-6 -22 -189 -570 -291 -868 l-47 -138 -124 0
c-93 0 -124 3 -124 13 0 6 22 75 49 152 27 77 263 750 524 1495 261 745 480
1367 486 1383 l11 27 128 0 129 0 31 -87z"/>
<path d="M1230 3030 l0 -963 138 6 c281 12 451 75 590 222 156 164 225 391
225 745 0 352 -63 565 -218 728 -136 145 -305 206 -597 219 l-138 6 0 -963z"/>
<path d="M4396 4123 c-37 -128 -427 -1315 -462 -1406 -6 -16 29 -17 519 -17
l526 0 -189 563 c-104 309 -220 665 -258 792 -38 126 -74 231 -78 232 -5 2
-31 -72 -58 -164z"/>
</g>
</svg>
